<svg xmlns="http://www.w3.org/2000/svg" xmlns:xlink="http://www.w3.org/1999/xlink" width="500" zoomAndPan="magnify" viewBox="0 0 375 374.999991" height="500" preserveAspectRatio="xMidYMid meet" version="1.0"><defs><g/></defs><g fill="#000000" fill-opacity="1"><g transform="translate(83.002573, 203.859072)"><g><path d="M 16.644531 0 L 16.644531 -0.25 C 5.515625 -4.3125 7.320312 -25.066406 8.574219 -34.039062 C 9.574219 -41.207031 9.574219 -41.160156 10.578125 -48.125 C 12.382812 -46.671875 12.683594 -44.214844 13.234375 -40.207031 C 13.785156 -35.292969 14.1875 -32.132812 14.988281 -26.519531 C 15.941406 -20.90625 16.84375 -0.703125 27.921875 -0.703125 C 33.085938 -0.703125 33.636719 -4.460938 33.636719 -6.71875 C 33.636719 -13.988281 28.875 -31.03125 28.875 -38.703125 C 28.875 -42.3125 29.476562 -47.425781 33.1875 -47.425781 C 36.648438 -47.425781 36.597656 -41.910156 37.199219 -37.5 C 39.152344 -23.210938 40.355469 -14.636719 42.363281 0 L 49.882812 0 C 47.875 -14.636719 46.824219 -23.160156 44.71875 -37.550781 C 43.816406 -43.765625 43.566406 -50.632812 36.898438 -50.632812 C 31.132812 -50.632812 27.671875 -46.222656 27.972656 -38.652344 C 28.273438 -31.484375 30.429688 -22.507812 31.183594 -17.796875 C 32.335938 -10.425781 33.9375 -4.210938 29.929688 -4.210938 C 26.871094 -4.210938 24.765625 -11.429688 23.964844 -16.59375 C 22.359375 -27.070312 21.558594 -33.589844 19.902344 -45.21875 C 19.453125 -48.378906 17.796875 -50.132812 15.441406 -50.132812 L 4.613281 -50.132812 L 4.613281 -49.882812 C 5.613281 -49.78125 6.46875 -49.679688 7.21875 -49.53125 C 10.726562 -48.277344 9.324219 -44.71875 8.824219 -41.710938 L 1.003906 0 Z M 16.644531 0 "/></g></g></g><g fill="#000000" fill-opacity="1"><g transform="translate(133.884775, 203.859072)"><g><path d="M 21.808594 0.5 C 33.6875 0.5 41.609375 -9.726562 41.609375 -25.066406 C 41.609375 -40.40625 33.6875 -50.632812 21.808594 -50.632812 C 9.875 -50.632812 2.003906 -40.40625 2.003906 -25.066406 C 2.003906 -9.726562 9.875 0.5 21.808594 0.5 Z M 9.824219 -25.117188 C 9.824219 -40.003906 14.589844 -49.929688 21.757812 -49.929688 C 28.976562 -49.929688 33.789062 -40.003906 33.789062 -25.117188 C 33.789062 -10.175781 28.976562 -0.25 21.757812 -0.25 C 14.589844 -0.25 9.824219 -10.175781 9.824219 -25.117188 Z M 9.824219 -25.117188 "/></g></g></g><g fill="#000000" fill-opacity="1"><g transform="translate(177.49809, 203.859072)"><g><path d="M 3.507812 0 L 13.9375 0 C 7.570312 -11.429688 4.410156 -24.664062 4.410156 -43.816406 C 4.410156 -43.816406 5.664062 -44.71875 8.472656 -39.355469 C 9.925781 -36.546875 12.785156 -30.582031 17.597656 -21.40625 C 23.761719 -9.675781 30.429688 0.5 36.597656 0.5 C 37.296875 0.5 38.300781 0.300781 38.851562 0 L 38.851562 -50.132812 L 28.425781 -50.132812 C 34.792969 -38.703125 37.949219 -25.46875 37.949219 -6.71875 C 37.949219 -6.71875 37.046875 -5.664062 34.339844 -8.574219 C 32.183594 -10.929688 28.875 -15.792969 23.863281 -25.066406 C 14.4375 -42.511719 13.234375 -50.632812 5.765625 -50.632812 C 5.0625 -50.632812 4.0625 -50.433594 3.507812 -50.132812 Z M 3.507812 0 "/></g></g></g><g fill="#000000" fill-opacity="1"><g transform="translate(219.858156, 203.859072)"><g><path d="M 2.003906 -16.84375 C 2.003906 -4.0625 13.132812 0.5 25.214844 0.5 C 28.625 0.5 31.183594 0 33.839844 -1.253906 L 36.847656 -9.976562 C 33.4375 -7.117188 29.226562 -6.769531 25.015625 -6.769531 C 13.785156 -6.769531 2.90625 -9.074219 2.90625 -16.441406 C 2.90625 -19.050781 4.863281 -20.605469 9.375 -20.605469 C 15.941406 -20.605469 21.003906 -15.792969 28.425781 -16.042969 C 31.933594 -16.140625 35.09375 -18.5 35.09375 -22.257812 C 35.09375 -32.234375 8.875 -28.777344 8.875 -38.300781 C 8.875 -41.808594 11.980469 -43.566406 19.300781 -43.566406 C 25.71875 -43.566406 32.386719 -41.859375 35.292969 -39.753906 L 37.347656 -47.273438 C 34.238281 -49.78125 25.617188 -50.632812 20.453125 -50.632812 C 6.015625 -50.632812 3.207031 -43.816406 3.207031 -40.757812 C 3.207031 -33.335938 10.425781 -31.984375 17.496094 -30.28125 C 22.859375 -28.976562 31.433594 -27.421875 31.433594 -24.464844 C 31.433594 -23.3125 30.378906 -22.859375 29.226562 -22.859375 C 24.566406 -22.859375 20.753906 -26.371094 14.085938 -26.371094 C 7.269531 -26.371094 2.003906 -23.210938 2.003906 -16.84375 Z M 2.003906 -16.84375 "/></g></g></g><g fill="#000000" fill-opacity="1"><g transform="translate(258.308054, 203.859072)"><g><path d="M 1.003906 -50.132812 C 5.816406 -39.453125 8.921875 -32.988281 13.386719 -22.808594 C 14.488281 -20.304688 16.394531 -18.097656 18.597656 -18.097656 C 21.558594 -18.097656 23.0625 -19.402344 24.011719 -20.554688 L 15.441406 0 L 27.773438 0 C 24.867188 -3.859375 24.0625 -8.574219 24.0625 -12.082031 C 24.0625 -19.703125 27.773438 -26.921875 30.480469 -33.289062 C 31.984375 -36.847656 36.347656 -48.929688 40.507812 -49.882812 L 40.507812 -50.132812 L 25.816406 -50.132812 L 25.816406 -49.882812 C 28.875 -49.328125 30.078125 -46.523438 30.078125 -42.964844 C 30.078125 -38.101562 27.722656 -29.378906 26.570312 -26.769531 C 24.613281 -22.308594 23.710938 -21.957031 22.859375 -21.957031 C 21.355469 -21.957031 20.65625 -23.3125 18.648438 -27.875 C 15.339844 -35.394531 12.484375 -41.308594 8.523438 -50.132812 Z M 1.003906 -50.132812 "/></g></g></g><g fill="#000000" fill-opacity="1"><g transform="translate(169.318231, 225.47474)"><g><path d="M 5.078125 0 L 5.078125 -3.4375 L 3.359375 -0.578125 L 3.0625 -0.578125 L 1.359375 -3.421875 L 1.359375 0 L 0.703125 0 L 0.703125 -4.71875 L 1.265625 -4.71875 L 3.21875 -1.40625 L 5.171875 -4.71875 L 5.71875 -4.71875 L 5.71875 0 Z M 5.078125 0 "/></g></g></g><g fill="#000000" fill-opacity="1"><g transform="translate(175.748913, 225.47474)"><g><path d="M 3.703125 -1.171875 L 1.203125 -1.171875 L 0.6875 0 L 0 0 L 2.125 -4.71875 L 2.796875 -4.71875 L 4.9375 0 L 4.234375 0 Z M 3.46875 -1.71875 L 2.453125 -4.03125 L 1.4375 -1.71875 Z M 3.46875 -1.71875 "/></g></g></g><g fill="#000000" fill-opacity="1"><g transform="translate(180.677977, 225.47474)"><g><path d="M 4.765625 -4.71875 L 4.765625 0 L 4.203125 0 L 1.375 -3.515625 L 1.375 0 L 0.703125 0 L 0.703125 -4.71875 L 1.265625 -4.71875 L 4.09375 -1.203125 L 4.09375 -4.71875 Z M 4.765625 -4.71875 "/></g></g></g><g fill="#000000" fill-opacity="1"><g transform="translate(186.145737, 225.47474)"><g><path d="M 3.703125 -1.171875 L 1.203125 -1.171875 L 0.6875 0 L 0 0 L 2.125 -4.71875 L 2.796875 -4.71875 L 4.9375 0 L 4.234375 0 Z M 3.46875 -1.71875 L 2.453125 -4.03125 L 1.4375 -1.71875 Z M 3.46875 -1.71875 "/></g></g></g><g fill="#000000" fill-opacity="1"><g transform="translate(191.074801, 225.47474)"><g><path d="M 3.96875 -2.390625 L 4.625 -2.390625 L 4.625 -0.546875 C 4.382812 -0.347656 4.109375 -0.195312 3.796875 -0.09375 C 3.492188 0 3.171875 0.046875 2.828125 0.046875 C 2.359375 0.046875 1.929688 -0.0546875 1.546875 -0.265625 C 1.160156 -0.472656 0.859375 -0.757812 0.640625 -1.125 C 0.429688 -1.488281 0.328125 -1.898438 0.328125 -2.359375 C 0.328125 -2.816406 0.429688 -3.226562 0.640625 -3.59375 C 0.859375 -3.957031 1.160156 -4.242188 1.546875 -4.453125 C 1.929688 -4.660156 2.363281 -4.765625 2.84375 -4.765625 C 3.226562 -4.765625 3.570312 -4.703125 3.875 -4.578125 C 4.1875 -4.453125 4.445312 -4.273438 4.65625 -4.046875 L 4.25 -3.625 C 3.863281 -3.988281 3.40625 -4.171875 2.875 -4.171875 C 2.519531 -4.171875 2.195312 -4.09375 1.90625 -3.9375 C 1.625 -3.78125 1.398438 -3.5625 1.234375 -3.28125 C 1.078125 -3.007812 1 -2.703125 1 -2.359375 C 1 -2.015625 1.078125 -1.703125 1.234375 -1.421875 C 1.398438 -1.148438 1.625 -0.9375 1.90625 -0.78125 C 2.195312 -0.625 2.519531 -0.546875 2.875 -0.546875 C 3.289062 -0.546875 3.65625 -0.644531 3.96875 -0.84375 Z M 3.96875 -2.390625 "/></g></g></g><g fill="#000000" fill-opacity="1"><g transform="translate(196.273217, 225.47474)"><g><path d="M 4.125 -0.578125 L 4.125 0 L 0.703125 0 L 0.703125 -4.71875 L 4.03125 -4.71875 L 4.03125 -4.125 L 1.375 -4.125 L 1.375 -2.6875 L 3.75 -2.6875 L 3.75 -2.109375 L 1.375 -2.109375 L 1.375 -0.578125 Z M 4.125 -0.578125 "/></g></g></g><g fill="#000000" fill-opacity="1"><g transform="translate(200.784793, 225.47474)"><g><path d="M 3.859375 0 L 2.84375 -1.453125 C 2.71875 -1.441406 2.617188 -1.4375 2.546875 -1.4375 L 1.375 -1.4375 L 1.375 0 L 0.703125 0 L 0.703125 -4.71875 L 2.546875 -4.71875 C 3.160156 -4.71875 3.640625 -4.570312 3.984375 -4.28125 C 4.335938 -3.988281 4.515625 -3.585938 4.515625 -3.078125 C 4.515625 -2.710938 4.421875 -2.398438 4.234375 -2.140625 C 4.054688 -1.878906 3.800781 -1.691406 3.46875 -1.578125 L 4.59375 0 Z M 2.53125 -2 C 2.957031 -2 3.28125 -2.09375 3.5 -2.28125 C 3.726562 -2.46875 3.84375 -2.734375 3.84375 -3.078125 C 3.84375 -3.410156 3.726562 -3.664062 3.5 -3.84375 C 3.28125 -4.03125 2.957031 -4.125 2.53125 -4.125 L 1.375 -4.125 L 1.375 -2 Z M 2.53125 -2 "/></g></g></g></svg>